# Blender v2.68 (sub 0) OBJ File: ''
# www.blender.org
mtllib twoObjTest.mtl
o Cube.003_Cube.011
v -0.619736 0.878303 1.832618
v -0.619736 0.878303 -0.167382
v 1.380264 0.878303 -0.167382
v 1.380264 0.878303 1.832618
v -0.619736 2.878304 1.832618
v -0.619736 2.878304 -0.167382
v 1.380264 2.878304 -0.167382
v 1.380264 2.878304 1.832618
vt 0.010231 0.996746
vt 1.010231 0.996746
vt 0.010231 -0.003254
vt 0.003858 0.996746
vt 1.003858 0.996746
vt 0.003858 -0.003254
vt 1.006325 1.006512
vt 0.006325 1.006512
vt 1.006325 0.006512
vt 1.009717 0.991863
vt 0.009717 0.991863
vt 1.009717 -0.008137
vt 0.003718 -0.000819
vt 0.003718 1.011717
vt 1.016253 -0.000819
vt 0.992774 0.022675
vt 0.992774 0.994419
vt 0.021031 0.022675
vt 1.010231 -0.003254
vt 1.003858 -0.003254
vt 0.006325 0.006512
vt 0.009717 -0.008137
vt 1.016253 1.011717
vt 0.021031 0.994419
vn -1.000000 0.000000 0.000000
vn 0.000000 0.000000 -1.000000
vn 1.000000 -0.000000 0.000000
vn 0.000000 -0.000000 1.000000
vn -0.000000 -1.000000 0.000000
vn -0.000000 1.000000 0.000000
usemtl Material.003
s off
f 5/1/1 6/2/1 1/3/1
f 6/4/2 7/5/2 2/6/2
f 7/7/3 8/8/3 3/9/3
f 8/10/4 5/11/4 4/12/4
f 1/13/5 2/14/5 4/15/5
f 8/16/6 7/17/6 5/18/6
f 6/2/1 2/19/1 1/3/1
f 7/5/2 3/20/2 2/6/2
f 8/8/3 4/21/3 3/9/3
f 5/11/4 1/22/4 4/12/4
f 2/14/5 3/23/5 4/15/5
f 7/17/6 6/24/6 5/18/6
o Cube.001_Cube.010
v -1.032027 -1.878666 -0.173932
v -1.032027 -1.878666 -2.173932
v 0.967973 -1.878666 -2.173932
v 0.967973 -1.878666 -0.173932
v -1.032027 0.121334 -0.173932
v -1.032027 0.121334 -2.173932
v 0.967973 0.121334 -2.173932
v 0.967973 0.121334 -0.173932
vt 0.010231 0.996746
vt 1.010231 0.996746
vt 0.010231 -0.003254
vt 0.003858 0.996746
vt 1.003858 0.996746
vt 0.003858 -0.003254
vt 1.006325 1.006512
vt 0.006325 1.006512
vt 1.006325 0.006512
vt 1.009717 0.991863
vt 0.009717 0.991863
vt 1.009717 -0.008137
vt 0.003718 -0.000819
vt 0.003718 1.011717
vt 1.016253 -0.000819
vt 0.992774 0.022675
vt 0.992774 0.994419
vt 0.021031 0.022675
vt 1.010231 -0.003254
vt 1.003858 -0.003254
vt 0.006325 0.006512
vt 0.009717 -0.008137
vt 1.016253 1.011717
vt 0.021031 0.994419
usemtl Material.003
s off
f 13/25/1 14/26/1 9/27/1
f 14/28/2 15/29/2 10/30/2
f 15/31/3 16/32/3 11/33/3
f 16/34/4 13/35/4 12/36/4
f 9/37/5 10/38/5 12/39/5
f 16/40/6 15/41/6 13/42/6
f 14/26/1 10/43/1 9/27/1
f 15/29/2 11/44/2 10/30/2
f 16/32/3 12/45/3 11/33/3
f 13/35/4 9/46/4 12/36/4
f 10/38/5 11/47/5 12/39/5
f 15/41/6 14/48/6 13/42/6
o Cube.000_Cube.009
v -0.461856 -1.191761 6.057688
v -0.461856 -1.191761 4.057688
v 1.538144 -1.191761 4.057688
v 1.538144 -1.191761 6.057688
v -0.461856 0.808239 6.057688
v -0.461856 0.808239 4.057688
v 1.538144 0.808239 4.057688
v 1.538144 0.808239 6.057688
vt 0.010231 0.996746
vt 1.010231 0.996746
vt 0.010231 -0.003254
vt 0.003858 0.996746
vt 1.003858 0.996746
vt 0.003858 -0.003254
vt 1.006325 1.006512
vt 0.006325 1.006512
vt 1.006325 0.006512
vt 1.009717 0.991863
vt 0.009717 0.991863
vt 1.009717 -0.008137
vt 0.003718 -0.000819
vt 0.003718 1.011717
vt 1.016253 -0.000819
vt 0.992774 0.022675
vt 0.992774 0.994419
vt 0.021031 0.022675
vt 1.010231 -0.003254
vt 1.003858 -0.003254
vt 0.006325 0.006512
vt 0.009717 -0.008137
vt 1.016253 1.011717
vt 0.021031 0.994419
usemtl Material.003
s off
f 21/49/1 22/50/1 17/51/1
f 22/52/2 23/53/2 18/54/2
f 23/55/3 24/56/3 19/57/3
f 24/58/4 21/59/4 20/60/4
f 17/61/5 18/62/5 20/63/5
f 24/64/6 23/65/6 21/66/6
f 22/50/1 18/67/1 17/51/1
f 23/53/2 19/68/2 18/54/2
f 24/56/3 20/69/3 19/57/3
f 21/59/4 17/70/4 20/60/4
f 18/62/5 19/71/5 20/63/5
f 23/65/6 22/72/6 21/66/6
o Cube.002_Cube.003
v 0.999904 1.772789 1.407272
v 0.999904 1.772789 -0.592728
v 2.999904 1.772789 -0.592728
v 2.999904 1.772789 1.407272
v 0.999904 3.772789 1.407272
v 0.999904 3.772789 -0.592728
v 2.999904 3.772789 -0.592728
v 2.999904 3.772789 1.407272
vt 0.010231 0.996746
vt 1.010231 0.996746
vt 0.010231 -0.003254
vt 0.003858 0.996746
vt 1.003858 0.996746
vt 0.003858 -0.003254
vt 1.006325 1.006512
vt 0.006325 1.006512
vt 1.006325 0.006512
vt 1.009717 0.991863
vt 0.009717 0.991863
vt 1.009717 -0.008137
vt 0.003718 -0.000819
vt 0.003718 1.011717
vt 1.016253 -0.000819
vt 0.992774 0.022675
vt 0.992774 0.994419
vt 0.021031 0.022675
vt 1.010231 -0.003254
vt 1.003858 -0.003254
vt 0.006325 0.006512
vt 0.009717 -0.008137
vt 1.016253 1.011717
vt 0.021031 0.994419
usemtl Material.003
s off
f 29/73/1 30/74/1 25/75/1
f 30/76/2 31/77/2 26/78/2
f 31/79/3 32/80/3 27/81/3
f 32/82/4 29/83/4 28/84/4
f 25/85/5 26/86/5 28/87/5
f 32/88/6 31/89/6 29/90/6
f 30/74/1 26/91/1 25/75/1
f 31/77/2 27/92/2 26/78/2
f 32/80/3 28/93/3 27/81/3
f 29/83/4 25/94/4 28/84/4
f 26/86/5 27/95/5 28/87/5
f 31/89/6 30/96/6 29/90/6
